<?xml version="1.0" standalone="no"?>
<!DOCTYPE svg PUBLIC "-//W3C//DTD SVG 20010904//EN"
 "http://www.w3.org/TR/2001/REC-SVG-20010904/DTD/svg10.dtd">
<svg version="1.0" xmlns="http://www.w3.org/2000/svg"
 width="512.000000pt" height="512.000000pt" viewBox="0 0 512.000000 512.000000"
 preserveAspectRatio="xMidYMid meet">
<metadata>
Created by potrace 1.11, written by Peter Selinger 2001-2013
</metadata>
<g transform="translate(0.000000,512.000000) scale(0.100000,-0.100000)"
fill="#000000" stroke="none">
<path d="M0 2560 l0 -2560 2560 0 2560 0 0 2560 0 2560 -2560 0 -2560 0 0
-2560z m2795 1569 c93 -12 215 -36 265 -51 117 -37 217 -76 304 -119 97 -49
283 -167 306 -194 9 -11 -22 -63 -156 -257 -92 -134 -171 -247 -176 -253 -5
-6 -15 -5 -26 2 -50 35 -234 142 -276 162 -201 93 -328 124 -501 124 -166 1
-242 -23 -323 -97 -54 -49 -72 -95 -72 -177 0 -150 65 -214 304 -298 88 -31
130 -43 352 -102 402 -105 682 -247 817 -414 63 -78 112 -179 138 -285 32
-128 29 -349 -5 -484 -95 -371 -384 -607 -836 -682 -126 -21 -411 -21 -546 0
-303 47 -570 147 -809 305 -77 51 -215 159 -215 168 0 4 348 422 381 457 18
19 19 18 91 -36 257 -196 497 -293 773 -313 311 -23 515 93 515 292 0 181
-132 266 -600 388 -475 123 -692 223 -847 389 -102 109 -160 239 -183 409 -69
523 234 940 765 1052 151 32 375 38 560 14z"/>
</g>
</svg>
